<svg xmlns="http://www.w3.org/2000/svg" width="32px" height="32px" fill="currentColor" class="dr-Fighter" viewBox="0 0 2151.854 1645.446"><path d="M473.193,122.93l70.616-100.207l114.268,2.57l472.846,507.005l9.565,3.637l25.415,27.872l305.779,32.233l120.523,118.425c233.709,11.414,437.469,36.111,529.933,110.172c-85.186,71.171-281.494,93.135-515.678,98.327l-105.887,125.98l-298.525,27.099l-24.044,30.401c0,0-34.547-3.873-40.394-0.024c-5.846,3.85,33.245,3.475,33.245,3.475l-400.932,512.827l-114.442-2.651l-83.974-103.406c0,0,66.607,1.263,71.042-0.484c4.435-1.747-43.802-5.451-74.479-2.617l-50.776-156.945l88.149-5.218l-93.742-1.446l-75.661-204.984l56.914-76.439l-5.926-2.78l-207.145,275.184l-132.24-1.431l-68.556-192.932l77.083-99.939l69.478,2.397l2.877-2.053l-68.436-5.524l60.359-83.329l100.421-0.099l-46.505-54.992c0,0,43.155-48.018,39.479-53.782c-3.675-5.765-102.418-7.431-102.418-7.431l-15.329-17.187l13.892-19.64l100.279,1.111l-47.807-55.39c0,0,42.888-48.355,41.773-55.045S199.87,689.67,199.87,689.67l-72.447-86.727l71.752-6.531l-77.127,1.67L29.716,497.986l40.194-194.014l134.757-1.215l178.172,195.445c0,0,4.368,2.475,5.203-2.025c0.835-4.499,45.542-204.052,45.542-204.052l131.915-4.675l-126.638-4.758l27.854-153.657l77.76-3.925L473.193,122.93z"/></svg>